<svg width="24" height="22" viewBox="0 0 24 22" fill="none" xmlns="http://www.w3.org/2000/svg">
<g clip-path="url(#clip0_71_282)">
<path d="M13.5459 6.99232C13.5459 6.30899 12.9584 6.22565 12.4042 6.22565L10.775 6.21315V9.10065H11.4584V8.05482H12.2084C12.975 8.05482 12.8125 8.48399 12.825 9.10065H13.5167V8.53815C13.5167 8.15482 13.4542 7.90899 13.0584 7.77149C13.3667 7.64649 13.55 7.32565 13.5459 6.99232ZM12.3209 7.46315H11.4584V6.82565H12.3334C12.5459 6.82565 12.7792 6.86732 12.7792 7.13399C12.7792 7.40899 12.5584 7.46315 12.3209 7.46315ZM11.625 11.1923H9.4292L8.5542 12.1423L7.70004 11.1923H4.9292L4.92503 14.0798H7.65004L8.53754 13.1215L9.38754 14.0798H10.7292L10.7334 13.109C11.5209 13.109 12.7875 13.3007 12.7875 12.1382C12.7875 11.4173 12.275 11.1923 11.625 11.1923ZM7.30003 13.4715H5.60837V12.8965H7.12087V12.309H5.60837V11.7882H7.34587L8.0917 12.6298L7.30003 13.4715ZM10.0417 13.8132L8.98754 12.6423L10.0417 11.5007V13.8132ZM11.6167 12.5215H10.7334V11.7882H11.6292C11.8625 11.7882 12.0542 11.884 12.0542 12.1382C12.0542 12.4048 11.8625 12.5215 11.6167 12.5215ZM10.3 6.82565V6.21732H7.98754V9.10482H10.3V8.50899H8.6792V7.93399H10.2542V7.34649H8.6792V6.82565H10.3ZM24 10.6423H23.9917H24ZM15.8917 11.9715C15.8917 11.2882 15.3042 11.1923 14.7625 11.1923H13.1209L13.1167 14.0798H13.8084L13.8125 13.0257H14.5459C15.0042 13.0257 15.1625 13.109 15.1625 13.6007L15.1584 14.0798H15.85L15.8542 13.5048C15.8542 13.134 15.7792 12.8757 15.3959 12.7382C15.7167 12.609 15.8875 12.2882 15.8917 11.9715ZM14.675 12.4382H13.8125V11.7882H14.6875C14.9 11.7882 15.1334 11.8298 15.1334 12.0965C15.1334 12.384 14.9084 12.4382 14.675 12.4382ZM7.47504 9.10482V6.21732H6.32504L5.5042 8.17565L4.60003 6.21732H3.47087V8.95482L2.30003 6.21732H1.2792L0.0416992 9.10482H0.787533L1.0542 8.46732H2.4917L2.75837 9.10482H4.1667V6.84649L5.1667 9.10482H5.77503L6.77504 6.84649V9.10482H7.47504ZM1.30003 7.86732L1.7667 6.71732L2.24587 7.86732H1.30003ZM21.1917 14.4882V14.3007C20.7417 14.534 21.0292 14.4882 14.6625 14.4882C14.6625 13.4382 14.6667 13.4923 14.6625 13.4382C14.5917 13.434 14.5292 13.434 14.2709 13.434C14.2709 14.1798 14.2667 13.7173 14.2667 14.4882H12.6167C12.6167 13.984 12.6209 13.8507 12.6209 13.2715C12.2042 13.5215 11.6709 13.5382 11.1917 13.5298C11.1917 14.1423 11.1875 13.8757 11.1875 14.4882H9.15004C8.93754 14.2507 9.03754 14.359 8.50837 13.7632C8.37504 13.909 7.97504 14.3423 7.83754 14.4882H4.42087V10.6423H7.88337C8.0917 10.8757 8.00004 10.7715 8.5292 11.359C8.66254 11.2132 9.03754 10.8007 9.18337 10.6423H11.6C12.0084 10.6423 12.35 10.7215 12.6125 10.8757V10.6423C14.875 10.6423 15.2917 10.584 15.7667 10.8548V10.6423H19.025V10.859C19.5 10.5715 19.8417 10.6423 21.7292 10.6423V10.8507C22.1584 10.6048 22.4209 10.634 23.9917 10.6423V3.33398C23.9917 2.22982 23.0959 1.33398 21.9917 1.33398H1.9917C0.887533 1.33398 -0.00830078 2.22982 -0.00830078 3.33398V7.90899C0.383366 6.99649 0.812533 5.99232 0.9542 5.66315H2.60837C2.78753 6.08399 2.67503 5.81732 2.98337 6.54232V5.66315H4.90003C5.02087 5.92149 5.36253 6.66315 5.4792 6.91315C5.72087 6.34649 5.90003 5.91732 6.0042 5.66315H10.2959C10.2959 5.65899 10.775 5.66315 10.7792 5.66315C12.6 5.67149 13.0125 5.62982 13.4625 5.88399V5.66315H15.125V6.05065C15.4417 5.79649 15.8709 5.66315 16.4042 5.66315H17.5542C17.5542 5.68399 17.6334 5.67565 17.65 5.67565H19C19.175 6.08399 19.1084 5.92565 19.3667 6.53399V5.67565H21.1709C21.375 6.00899 21.1292 5.60065 21.6375 6.44232V5.67565H23.3V9.50899H21.5667C21.3417 9.13399 21.5084 9.41732 21.0167 8.59649V9.50899H18.8167C18.55 8.89232 18.8125 9.49649 18.5417 8.87149H17.75C17.575 9.28815 17.6584 9.08815 17.4834 9.50899H16.3667C15.8542 9.50899 15.4375 9.38399 15.1292 9.13815V9.50899H12.3584C12.3459 8.92982 12.3542 8.47565 12.3542 8.47565C12.2792 8.46315 12.2125 8.46732 11.9459 8.46732V9.51315H6.30003V9.03815C6.19587 9.27149 6.18754 9.28399 6.08753 9.51315H4.85837C4.6917 9.14232 4.73753 9.24649 4.64587 9.03815V9.51315H2.4417C2.2667 9.09232 2.35003 9.29232 2.17503 8.87565H1.37503C1.20003 9.29232 1.28337 9.09232 1.10837 9.51315H3.25553e-05V18.0007C3.25553e-05 19.1048 0.895866 20.0007 2.00003 20.0007H22.0042C23.1084 20.0007 24.0042 19.1048 24.0042 18.0007V14.234C23.475 14.5798 22.6417 14.4882 21.1917 14.4882ZM22.7042 11.8007H23.9584V11.1923H22.5875C22.0542 11.1923 21.5959 11.4673 21.5959 12.0548C21.5959 13.4298 23.375 12.5882 23.375 13.1965C23.375 13.409 23.1959 13.4632 23.025 13.4632H21.6917L21.6875 14.0798H23.0209C23.3709 14.0798 23.7542 14.0048 23.9584 13.709V12.634C23.5209 12.059 22.3209 12.5798 22.3209 12.0715C22.3209 11.8298 22.5125 11.8007 22.7042 11.8007ZM20.3292 13.459H18.9875L18.9834 14.0757H20.325C20.9417 14.0757 21.4167 13.8423 21.4167 13.159C21.4167 11.7757 19.6292 12.6923 19.6292 12.0632C19.6292 11.8298 19.8334 11.7965 20.0125 11.7965H21.2792V11.1882H19.8959C19.3625 11.1882 18.9167 11.4632 18.9167 12.0507C18.9167 13.4257 20.6959 12.5715 20.6959 13.1923C20.6917 13.4173 20.5 13.459 20.3292 13.459ZM18.5709 11.7882V11.1923H16.2709L16.2667 14.0798H18.5667L18.5709 13.484L16.9625 13.4715V12.8965H18.5417V12.309H16.9667V11.7882H18.5709ZM16.225 7.28399C16.2125 7.29232 16.1667 7.37565 16.1667 7.60065C16.1667 7.85065 16.2042 7.92149 16.2125 7.92982C16.2209 7.93399 16.2584 7.95065 16.3542 7.95065L16.6584 7.24649C16.6125 7.24649 16.5709 7.24232 16.5292 7.24232C16.2959 7.24232 16.2375 7.27149 16.225 7.28399ZM17.075 6.84649H17.0709H17.075ZM16.4 6.21315C15.4209 6.21315 14.9834 6.71315 14.9834 7.68399C14.9834 8.60899 15.4084 9.10065 16.3584 9.10065H17.1584L17.425 8.46315H18.8542L19.1292 9.10065H20.5334V6.93815L21.8334 9.10065H22.8167V6.22565H22.1125V8.22982L20.9 6.22565H19.8459V8.95065L18.6834 6.22565H17.65L16.6709 8.49649H16.3625C15.8084 8.49649 15.6917 8.15899 15.6917 7.66732C15.6917 6.67565 16.3459 6.83399 17.0709 6.84649V6.21315H16.4ZM18.1542 6.71732L18.6209 7.86732H17.6709L18.1542 6.71732ZM13.9417 6.21732V9.10482H14.6459V6.21732H13.9417Z" fill="#222222"/>
</g>
<defs>
<clipPath id="clip0_71_282">
<rect width="24" height="21.3333" fill="white"/>
</clipPath>
</defs>
</svg>
