<svg width="24" height="19" viewBox="0 0 24 19" fill="none" xmlns="http://www.w3.org/2000/svg">
<path d="M17.9792 9.17982V7.83399C19.6958 7.83399 19.5833 7.84232 19.5833 7.84232C19.8875 7.89649 20.1375 8.14649 20.1375 8.50899C20.1375 8.87565 19.8875 9.11315 19.5833 9.16732C19.5333 9.18399 19.4458 9.17982 17.9792 9.17982ZM19.7625 10.0215C19.6458 9.99232 19.625 10.0007 17.9792 10.0007V11.459C19.6292 11.459 19.6458 11.4673 19.7625 11.4382C20.075 11.3757 20.325 11.1048 20.325 10.7298C20.325 10.3673 20.075 10.084 19.7625 10.0215ZM24 2.33398V17.0007C24 18.1048 23.1042 19.0007 22 19.0007H2C0.895833 19.0007 0 18.1048 0 17.0007V2.33398C0 1.22982 0.895833 0.333984 2 0.333984H22C23.1042 0.333984 24 1.22982 24 2.33398ZM7.58333 7.01315H5.20833C5.20833 9.80899 5.65417 11.584 3.71667 11.584C2.90417 11.584 2.1 11.3465 1.33333 10.9673V12.134C2.58333 12.4798 4.16667 12.4798 4.16667 12.4798C8.24583 12.4798 7.58333 10.4923 7.58333 7.01315ZM15.0208 7.20065C12.3792 6.53399 8.14583 6.57982 8.14583 9.67149C8.14583 12.884 12.6542 12.7382 15.0208 12.1382V10.959C13.0375 11.9882 10.5417 11.8757 10.5417 9.66732C10.5417 7.45899 13.0333 7.35065 15.0208 8.36732V7.20065ZM22.6667 10.9382C22.6667 10.1673 21.9792 9.66732 21.0833 9.60482V9.57149C21.8958 9.45899 22.3458 8.92565 22.3458 8.31315C22.3458 7.52149 21.6917 7.06315 20.8042 7.02149C20.8042 7.02149 21.0667 7.00899 15.7917 7.00899V12.3215H20.9042C21.9167 12.3257 22.6667 11.784 22.6667 10.9382Z" fill="#222222"/>
</svg>
