<svg width="24" height="20" viewBox="0 0 24 20" fill="none" xmlns="http://www.w3.org/2000/svg">
<path d="M20.1208 16.0958C20.1208 16.3792 19.9292 16.5833 19.6542 16.5833C19.3708 16.5833 19.1875 16.3667 19.1875 16.0958C19.1875 15.825 19.3708 15.6083 19.6542 15.6083C19.9292 15.6083 20.1208 15.825 20.1208 16.0958ZM7.17083 15.6083C6.875 15.6083 6.70417 15.825 6.70417 16.0958C6.70417 16.3667 6.875 16.5833 7.17083 16.5833C7.44167 16.5833 7.625 16.3792 7.625 16.0958C7.62083 15.825 7.44167 15.6083 7.17083 15.6083ZM12.0667 15.5958C11.8417 15.5958 11.7042 15.7417 11.6708 15.9583H12.4667C12.4292 15.7208 12.2833 15.5958 12.0667 15.5958ZM16.5583 15.6083C16.275 15.6083 16.1042 15.825 16.1042 16.0958C16.1042 16.3667 16.275 16.5833 16.5583 16.5833C16.8417 16.5833 17.025 16.3792 17.025 16.0958C17.025 15.825 16.8417 15.6083 16.5583 15.6083ZM20.9708 16.6958C20.9708 16.7083 20.9833 16.7167 20.9833 16.7417C20.9833 16.7542 20.9708 16.7625 20.9708 16.7875C20.9583 16.8 20.9583 16.8083 20.95 16.8208C20.9375 16.8333 20.9292 16.8417 20.9042 16.8417C20.8917 16.8542 20.8833 16.8542 20.8583 16.8542C20.8458 16.8542 20.8375 16.8542 20.8125 16.8417C20.8 16.8417 20.7917 16.8292 20.7792 16.8208C20.7667 16.8083 20.7583 16.8 20.7583 16.7875C20.7458 16.7667 20.7458 16.7542 20.7458 16.7417C20.7458 16.7208 20.7458 16.7083 20.7583 16.6958C20.7583 16.675 20.7708 16.6625 20.7792 16.65C20.7917 16.6375 20.8 16.6375 20.8125 16.6292C20.8333 16.6167 20.8458 16.6167 20.8583 16.6167C20.8792 16.6167 20.8917 16.6167 20.9042 16.6292C20.925 16.6417 20.9375 16.6417 20.95 16.65C20.9625 16.6583 20.9583 16.675 20.9708 16.6958ZM20.8792 16.7542C20.9 16.7542 20.9 16.7417 20.9125 16.7417C20.925 16.7292 20.925 16.7208 20.925 16.7083C20.925 16.6958 20.925 16.6875 20.9125 16.675C20.9 16.675 20.8917 16.6625 20.8667 16.6625H20.8V16.8083H20.8333V16.75H20.8458L20.8917 16.8083H20.925L20.8792 16.7542ZM24 2.375V17.0417C24 18.1458 23.1042 19.0417 22 19.0417H2C0.895833 19.0417 0 18.1458 0 17.0417V2.375C0 1.27083 0.895833 0.375 2 0.375H22C23.1042 0.375 24 1.27083 24 2.375ZM2.66667 8.19167C2.66667 11.3792 5.25417 13.9625 8.4375 13.9625C9.57083 13.9625 10.6833 13.6208 11.625 13C8.5875 10.5292 8.60833 5.86667 11.625 3.39583C10.6833 2.77083 9.57083 2.43333 8.4375 2.43333C5.25417 2.42917 2.66667 5.01667 2.66667 8.19167ZM12 12.725C14.9375 10.4333 14.925 5.96667 12 3.6625C9.075 5.96667 9.0625 10.4375 12 12.725ZM6.07083 15.9042C6.07083 15.5417 5.83333 15.3042 5.45833 15.2917C5.26667 15.2917 5.0625 15.35 4.925 15.5625C4.825 15.3917 4.65417 15.2917 4.41667 15.2917C4.25833 15.2917 4.1 15.35 3.975 15.5167V15.3333H3.63333V16.8625H3.975C3.975 16.075 3.87083 15.6042 4.35 15.6042C4.775 15.6042 4.69167 16.0292 4.69167 16.8625H5.02083C5.02083 16.1 4.91667 15.6042 5.39583 15.6042C5.82083 15.6042 5.7375 16.0208 5.7375 16.8625H6.07917V15.9042H6.07083ZM7.94167 15.3333H7.6125V15.5167C7.5 15.3792 7.34167 15.2917 7.125 15.2917C6.69583 15.2917 6.36667 15.6333 6.36667 16.0958C6.36667 16.5625 6.69583 16.9 7.125 16.9C7.34167 16.9 7.5 16.8208 7.6125 16.675V16.8667H7.94167V15.3333ZM9.62917 16.4C9.62917 15.775 8.675 16.0583 8.675 15.7667C8.675 15.5292 9.17083 15.5667 9.44583 15.7208L9.58333 15.45C9.19167 15.1958 8.325 15.2 8.325 15.7917C8.325 16.3875 9.27917 16.1375 9.27917 16.4167C9.27917 16.6792 8.71667 16.6583 8.41667 16.45L8.27083 16.7125C8.7375 17.0292 9.62917 16.9625 9.62917 16.4ZM11.1042 16.7875L11.0125 16.5042C10.8542 16.5917 10.5042 16.6875 10.5042 16.3333V15.6417H11.05V15.3333H10.5042V14.8667H10.1625V15.3333H9.84583V15.6375H10.1625V16.3333C10.1625 17.0667 10.8833 16.9333 11.1042 16.7875ZM11.6583 16.2292H12.8042C12.8042 15.5542 12.4958 15.2875 12.0792 15.2875C11.6375 15.2875 11.3208 15.6167 11.3208 16.0917C11.3208 16.9458 12.2625 17.0875 12.7292 16.6833L12.5708 16.4333C12.2458 16.7 11.7542 16.675 11.6583 16.2292ZM14.1208 15.3333C13.9292 15.25 13.6375 15.2583 13.4875 15.5167V15.3333H13.1458V16.8625H13.4875V16C13.4875 15.5167 13.8833 15.5792 14.0208 15.65L14.1208 15.3333ZM14.5625 16.0958C14.5625 15.6208 15.0458 15.4667 15.425 15.7458L15.5833 15.475C15.1 15.0958 14.2208 15.3042 14.2208 16.1C14.2208 16.925 15.1542 17.0917 15.5833 16.725L15.425 16.4542C15.0417 16.725 14.5625 16.5625 14.5625 16.0958ZM17.3417 15.3333H17V15.5167C16.6542 15.0583 15.7542 15.3167 15.7542 16.0958C15.7542 16.8958 16.6875 17.125 17 16.675V16.8667H17.3417V15.3333ZM18.7458 15.3333C18.6458 15.2833 18.2875 15.2125 18.1125 15.5167V15.3333H17.7833V16.8625H18.1125V16C18.1125 15.5417 18.4875 15.5708 18.6458 15.65L18.7458 15.3333ZM20.425 14.7125H20.0958V15.5167C19.7542 15.0625 18.85 15.3042 18.85 16.0958C18.85 16.9042 19.7875 17.1208 20.0958 16.675V16.8667H20.425V14.7125ZM20.7417 11.5833V11.775H20.775V11.5833H20.8542V11.55H20.6625V11.5833H20.7417ZM21.0167 16.7417C21.0167 16.7208 21.0167 16.6958 21.0042 16.675C20.9917 16.6625 20.9833 16.6417 20.9708 16.6292C20.9583 16.6167 20.9375 16.6083 20.925 16.5958C20.9042 16.5958 20.8792 16.5833 20.8583 16.5833C20.8458 16.5833 20.825 16.5958 20.8 16.5958C20.7792 16.6083 20.7667 16.6167 20.7542 16.6292C20.7333 16.6417 20.7208 16.6625 20.7208 16.675C20.7083 16.6958 20.7083 16.7208 20.7083 16.7417C20.7083 16.7542 20.7083 16.775 20.7208 16.8C20.7208 16.8125 20.7333 16.8333 20.7542 16.8458C20.7667 16.8583 20.775 16.8667 20.8 16.8792C20.8208 16.8917 20.8458 16.8917 20.8583 16.8917C20.8792 16.8917 20.9042 16.8917 20.925 16.8792C20.9375 16.8667 20.9583 16.8583 20.9708 16.8458C20.9833 16.8333 20.9917 16.8125 21.0042 16.8C21.0167 16.775 21.0167 16.7542 21.0167 16.7417ZM21.15 11.5458H21.0917L21.025 11.6917L20.9583 11.5458H20.9V11.7708H20.9333V11.6L21 11.7458H21.0458L21.1042 11.6V11.7708H21.15V11.5458ZM21.3333 8.19167C21.3333 5.01667 18.7458 2.42917 15.5625 2.42917C14.4292 2.42917 13.3167 2.77083 12.375 3.39167C15.3792 5.8625 15.425 10.5375 12.375 12.9958C13.3167 13.6208 14.4375 13.9583 15.5625 13.9583C18.7458 13.9625 21.3333 11.3792 21.3333 8.19167Z" fill="#222222"/>
</svg>
