<svg width="24" height="19" viewBox="0 0 24 19" fill="none" xmlns="http://www.w3.org/2000/svg">
<path d="M19.5875 8.63815C19.5875 8.63815 19.9042 10.1882 19.975 10.5132H18.5833C18.7208 10.1423 19.25 8.70065 19.25 8.70065C19.2417 8.71315 19.3875 8.32149 19.4708 8.07982L19.5875 8.63815ZM24 2.33398V17.0007C24 18.1048 23.1042 19.0007 22 19.0007H2C0.895833 19.0007 0 18.1048 0 17.0007V2.33398C0 1.22982 0.895833 0.333984 2 0.333984H22C23.1042 0.333984 24 1.22982 24 2.33398ZM6.35417 12.8007L8.9875 6.33399H7.21667L5.57917 10.7507L5.4 9.85482L4.81667 6.87982C4.72083 6.46732 4.425 6.35065 4.05833 6.33399H1.3625L1.33333 6.46315C1.99167 6.62982 2.57917 6.87149 3.09167 7.17565L4.58333 12.8007H6.35417ZM10.2875 12.809L11.3375 6.33399H9.6625L8.61667 12.809H10.2875ZM16.1167 10.6923C16.125 9.95482 15.675 9.39232 14.7125 8.92982C14.125 8.63399 13.7667 8.43399 13.7667 8.12982C13.775 7.85482 14.0708 7.57149 14.7292 7.57149C15.275 7.55899 15.675 7.68815 15.975 7.81732L16.125 7.88815L16.3542 6.48815C16.025 6.35899 15.5 6.21315 14.8542 6.21315C13.2 6.21315 12.0375 7.09649 12.0292 8.35482C12.0167 9.28399 12.8625 9.80065 13.4958 10.1132C14.1417 10.4298 14.3625 10.6382 14.3625 10.9173C14.3542 11.3507 13.8375 11.5507 13.3583 11.5507C12.6917 11.5507 12.3333 11.4465 11.7875 11.2048L11.5667 11.1007L11.3333 12.5548C11.725 12.734 12.45 12.8923 13.2 12.9007C14.9583 12.9048 16.1042 12.034 16.1167 10.6923ZM22 12.809L20.65 6.33399H19.3542C18.9542 6.33399 18.65 6.45065 18.4792 6.87149L15.9917 12.809H17.75C17.75 12.809 18.0375 12.009 18.1 11.8382H20.25C20.3 12.0673 20.45 12.809 20.45 12.809H22Z" fill="#222222"/>
</svg>
