<svg width="120" height="22" viewBox="0 0 120 22" fill="none" xmlns="http://www.w3.org/2000/svg">
<path d="M19.5875 9.63815C19.5875 9.63815 19.9042 11.1882 19.975 11.5132H18.5833C18.7208 11.1423 19.25 9.70065 19.25 9.70065C19.2417 9.71315 19.3875 9.32149 19.4708 9.07982L19.5875 9.63815ZM24 3.33398V18.0007C24 19.1048 23.1042 20.0007 22 20.0007H2C0.895833 20.0007 0 19.1048 0 18.0007V3.33398C0 2.22982 0.895833 1.33398 2 1.33398H22C23.1042 1.33398 24 2.22982 24 3.33398ZM6.35417 13.8007L8.9875 7.33399H7.21667L5.57917 11.7507L5.4 10.8548L4.81667 7.87982C4.72083 7.46732 4.425 7.35065 4.05833 7.33399H1.3625L1.33333 7.46315C1.99167 7.62982 2.57917 7.87149 3.09167 8.17565L4.58333 13.8007H6.35417ZM10.2875 13.809L11.3375 7.33399H9.6625L8.61667 13.809H10.2875ZM16.1167 11.6923C16.125 10.9548 15.675 10.3923 14.7125 9.92982C14.125 9.63399 13.7667 9.43399 13.7667 9.12982C13.775 8.85482 14.0708 8.57149 14.7292 8.57149C15.275 8.55899 15.675 8.68815 15.975 8.81732L16.125 8.88815L16.3542 7.48815C16.025 7.35899 15.5 7.21315 14.8542 7.21315C13.2 7.21315 12.0375 8.09649 12.0292 9.35482C12.0167 10.284 12.8625 10.8007 13.4958 11.1132C14.1417 11.4298 14.3625 11.6382 14.3625 11.9173C14.3542 12.3507 13.8375 12.5507 13.3583 12.5507C12.6917 12.5507 12.3333 12.4465 11.7875 12.2048L11.5667 12.1007L11.3333 13.5548C11.725 13.734 12.45 13.8923 13.2 13.9007C14.9583 13.9048 16.1042 13.034 16.1167 11.6923ZM22 13.809L20.65 7.33399H19.3542C18.9542 7.33399 18.65 7.45065 18.4792 7.87149L15.9917 13.809H17.75C17.75 13.809 18.0375 13.009 18.1 12.8382H20.25C20.3 13.0673 20.45 13.809 20.45 13.809H22Z" fill="#222222"/>
<path d="M52.1208 17.0958C52.1208 17.3792 51.9292 17.5833 51.6542 17.5833C51.3708 17.5833 51.1875 17.3667 51.1875 17.0958C51.1875 16.825 51.3708 16.6083 51.6542 16.6083C51.9292 16.6083 52.1208 16.825 52.1208 17.0958ZM39.1708 16.6083C38.875 16.6083 38.7042 16.825 38.7042 17.0958C38.7042 17.3667 38.875 17.5833 39.1708 17.5833C39.4417 17.5833 39.625 17.3792 39.625 17.0958C39.6208 16.825 39.4417 16.6083 39.1708 16.6083ZM44.0667 16.5958C43.8417 16.5958 43.7042 16.7417 43.6708 16.9583H44.4667C44.4292 16.7208 44.2833 16.5958 44.0667 16.5958ZM48.5583 16.6083C48.275 16.6083 48.1042 16.825 48.1042 17.0958C48.1042 17.3667 48.275 17.5833 48.5583 17.5833C48.8417 17.5833 49.025 17.3792 49.025 17.0958C49.025 16.825 48.8417 16.6083 48.5583 16.6083ZM52.9708 17.6958C52.9708 17.7083 52.9833 17.7167 52.9833 17.7417C52.9833 17.7542 52.9708 17.7625 52.9708 17.7875C52.9583 17.8 52.9583 17.8083 52.95 17.8208C52.9375 17.8333 52.9292 17.8417 52.9042 17.8417C52.8917 17.8542 52.8833 17.8542 52.8583 17.8542C52.8458 17.8542 52.8375 17.8542 52.8125 17.8417C52.8 17.8417 52.7917 17.8292 52.7792 17.8208C52.7667 17.8083 52.7583 17.8 52.7583 17.7875C52.7458 17.7667 52.7458 17.7542 52.7458 17.7417C52.7458 17.7208 52.7458 17.7083 52.7583 17.6958C52.7583 17.675 52.7708 17.6625 52.7792 17.65C52.7917 17.6375 52.8 17.6375 52.8125 17.6292C52.8333 17.6167 52.8458 17.6167 52.8583 17.6167C52.8792 17.6167 52.8917 17.6167 52.9042 17.6292C52.925 17.6417 52.9375 17.6417 52.95 17.65C52.9625 17.6583 52.9583 17.675 52.9708 17.6958ZM52.8792 17.7542C52.9 17.7542 52.9 17.7417 52.9125 17.7417C52.925 17.7292 52.925 17.7208 52.925 17.7083C52.925 17.6958 52.925 17.6875 52.9125 17.675C52.9 17.675 52.8917 17.6625 52.8667 17.6625H52.8V17.8083H52.8333V17.75H52.8458L52.8917 17.8083H52.925L52.8792 17.7542ZM56 3.375V18.0417C56 19.1458 55.1042 20.0417 54 20.0417H34C32.8958 20.0417 32 19.1458 32 18.0417V3.375C32 2.27083 32.8958 1.375 34 1.375H54C55.1042 1.375 56 2.27083 56 3.375ZM34.6667 9.19167C34.6667 12.3792 37.2542 14.9625 40.4375 14.9625C41.5708 14.9625 42.6833 14.6208 43.625 14C40.5875 11.5292 40.6083 6.86667 43.625 4.39583C42.6833 3.77083 41.5708 3.43333 40.4375 3.43333C37.2542 3.42917 34.6667 6.01667 34.6667 9.19167ZM44 13.725C46.9375 11.4333 46.925 6.96667 44 4.6625C41.075 6.96667 41.0625 11.4375 44 13.725ZM38.0708 16.9042C38.0708 16.5417 37.8333 16.3042 37.4583 16.2917C37.2667 16.2917 37.0625 16.35 36.925 16.5625C36.825 16.3917 36.6542 16.2917 36.4167 16.2917C36.2583 16.2917 36.1 16.35 35.975 16.5167V16.3333H35.6333V17.8625H35.975C35.975 17.075 35.8708 16.6042 36.35 16.6042C36.775 16.6042 36.6917 17.0292 36.6917 17.8625H37.0208C37.0208 17.1 36.9167 16.6042 37.3958 16.6042C37.8208 16.6042 37.7375 17.0208 37.7375 17.8625H38.0792V16.9042H38.0708ZM39.9417 16.3333H39.6125V16.5167C39.5 16.3792 39.3417 16.2917 39.125 16.2917C38.6958 16.2917 38.3667 16.6333 38.3667 17.0958C38.3667 17.5625 38.6958 17.9 39.125 17.9C39.3417 17.9 39.5 17.8208 39.6125 17.675V17.8667H39.9417V16.3333ZM41.6292 17.4C41.6292 16.775 40.675 17.0583 40.675 16.7667C40.675 16.5292 41.1708 16.5667 41.4458 16.7208L41.5833 16.45C41.1917 16.1958 40.325 16.2 40.325 16.7917C40.325 17.3875 41.2792 17.1375 41.2792 17.4167C41.2792 17.6792 40.7167 17.6583 40.4167 17.45L40.2708 17.7125C40.7375 18.0292 41.6292 17.9625 41.6292 17.4ZM43.1042 17.7875L43.0125 17.5042C42.8542 17.5917 42.5042 17.6875 42.5042 17.3333V16.6417H43.05V16.3333H42.5042V15.8667H42.1625V16.3333H41.8458V16.6375H42.1625V17.3333C42.1625 18.0667 42.8833 17.9333 43.1042 17.7875ZM43.6583 17.2292H44.8042C44.8042 16.5542 44.4958 16.2875 44.0792 16.2875C43.6375 16.2875 43.3208 16.6167 43.3208 17.0917C43.3208 17.9458 44.2625 18.0875 44.7292 17.6833L44.5708 17.4333C44.2458 17.7 43.7542 17.675 43.6583 17.2292ZM46.1208 16.3333C45.9292 16.25 45.6375 16.2583 45.4875 16.5167V16.3333H45.1458V17.8625H45.4875V17C45.4875 16.5167 45.8833 16.5792 46.0208 16.65L46.1208 16.3333ZM46.5625 17.0958C46.5625 16.6208 47.0458 16.4667 47.425 16.7458L47.5833 16.475C47.1 16.0958 46.2208 16.3042 46.2208 17.1C46.2208 17.925 47.1542 18.0917 47.5833 17.725L47.425 17.4542C47.0417 17.725 46.5625 17.5625 46.5625 17.0958ZM49.3417 16.3333H49V16.5167C48.6542 16.0583 47.7542 16.3167 47.7542 17.0958C47.7542 17.8958 48.6875 18.125 49 17.675V17.8667H49.3417V16.3333ZM50.7458 16.3333C50.6458 16.2833 50.2875 16.2125 50.1125 16.5167V16.3333H49.7833V17.8625H50.1125V17C50.1125 16.5417 50.4875 16.5708 50.6458 16.65L50.7458 16.3333ZM52.425 15.7125H52.0958V16.5167C51.7542 16.0625 50.85 16.3042 50.85 17.0958C50.85 17.9042 51.7875 18.1208 52.0958 17.675V17.8667H52.425V15.7125ZM52.7417 12.5833V12.775H52.775V12.5833H52.8542V12.55H52.6625V12.5833H52.7417ZM53.0167 17.7417C53.0167 17.7208 53.0167 17.6958 53.0042 17.675C52.9917 17.6625 52.9833 17.6417 52.9708 17.6292C52.9583 17.6167 52.9375 17.6083 52.925 17.5958C52.9042 17.5958 52.8792 17.5833 52.8583 17.5833C52.8458 17.5833 52.825 17.5958 52.8 17.5958C52.7792 17.6083 52.7667 17.6167 52.7542 17.6292C52.7333 17.6417 52.7208 17.6625 52.7208 17.675C52.7083 17.6958 52.7083 17.7208 52.7083 17.7417C52.7083 17.7542 52.7083 17.775 52.7208 17.8C52.7208 17.8125 52.7333 17.8333 52.7542 17.8458C52.7667 17.8583 52.775 17.8667 52.8 17.8792C52.8208 17.8917 52.8458 17.8917 52.8583 17.8917C52.8792 17.8917 52.9042 17.8917 52.925 17.8792C52.9375 17.8667 52.9583 17.8583 52.9708 17.8458C52.9833 17.8333 52.9917 17.8125 53.0042 17.8C53.0167 17.775 53.0167 17.7542 53.0167 17.7417ZM53.15 12.5458H53.0917L53.025 12.6917L52.9583 12.5458H52.9V12.7708H52.9333V12.6L53 12.7458H53.0458L53.1042 12.6V12.7708H53.15V12.5458ZM53.3333 9.19167C53.3333 6.01667 50.7458 3.42917 47.5625 3.42917C46.4292 3.42917 45.3167 3.77083 44.375 4.39167C47.3792 6.8625 47.425 11.5375 44.375 13.9958C45.3167 14.6208 46.4375 14.9583 47.5625 14.9583C50.7458 14.9625 53.3333 12.3792 53.3333 9.19167Z" fill="#222222"/>
<path d="M81.9792 10.1798V8.83399C83.6958 8.83399 83.5833 8.84232 83.5833 8.84232C83.8875 8.89649 84.1375 9.14649 84.1375 9.50899C84.1375 9.87565 83.8875 10.1132 83.5833 10.1673C83.5333 10.184 83.4458 10.1798 81.9792 10.1798ZM83.7625 11.0215C83.6458 10.9923 83.625 11.0007 81.9792 11.0007V12.459C83.6292 12.459 83.6458 12.4673 83.7625 12.4382C84.075 12.3757 84.325 12.1048 84.325 11.7298C84.325 11.3673 84.075 11.084 83.7625 11.0215ZM88 3.33398V18.0007C88 19.1048 87.1042 20.0007 86 20.0007H66C64.8958 20.0007 64 19.1048 64 18.0007V3.33398C64 2.22982 64.8958 1.33398 66 1.33398H86C87.1042 1.33398 88 2.22982 88 3.33398ZM71.5833 8.01315H69.2083C69.2083 10.809 69.6542 12.584 67.7167 12.584C66.9042 12.584 66.1 12.3465 65.3333 11.9673V13.134C66.5833 13.4798 68.1667 13.4798 68.1667 13.4798C72.2458 13.4798 71.5833 11.4923 71.5833 8.01315ZM79.0208 8.20065C76.3792 7.53399 72.1458 7.57982 72.1458 10.6715C72.1458 13.884 76.6542 13.7382 79.0208 13.1382V11.959C77.0375 12.9882 74.5417 12.8757 74.5417 10.6673C74.5417 8.45899 77.0333 8.35065 79.0208 9.36732V8.20065ZM86.6667 11.9382C86.6667 11.1673 85.9792 10.6673 85.0833 10.6048V10.5715C85.8958 10.459 86.3458 9.92565 86.3458 9.31315C86.3458 8.52149 85.6917 8.06315 84.8042 8.02149C84.8042 8.02149 85.0667 8.00899 79.7917 8.00899V13.3215H84.9042C85.9167 13.3257 86.6667 12.784 86.6667 11.9382Z" fill="#222222"/>
<g clip-path="url(#clip0_71_427)">
<path d="M109.546 6.99232C109.546 6.30899 108.958 6.22565 108.404 6.22565L106.775 6.21315V9.10065H107.458V8.05482H108.208C108.975 8.05482 108.813 8.48399 108.825 9.10065H109.517V8.53815C109.517 8.15482 109.454 7.90899 109.058 7.77149C109.367 7.64649 109.55 7.32565 109.546 6.99232ZM108.321 7.46315H107.458V6.82565H108.333C108.546 6.82565 108.779 6.86732 108.779 7.13399C108.779 7.40899 108.558 7.46315 108.321 7.46315ZM107.625 11.1923H105.429L104.554 12.1423L103.7 11.1923H100.929L100.925 14.0798H103.65L104.538 13.1215L105.388 14.0798H106.729L106.733 13.109C107.521 13.109 108.788 13.3007 108.788 12.1382C108.788 11.4173 108.275 11.1923 107.625 11.1923ZM103.3 13.4715H101.608V12.8965H103.121V12.309H101.608V11.7882H103.346L104.092 12.6298L103.3 13.4715ZM106.042 13.8132L104.988 12.6423L106.042 11.5007V13.8132ZM107.617 12.5215H106.733V11.7882H107.629C107.863 11.7882 108.054 11.884 108.054 12.1382C108.054 12.4048 107.863 12.5215 107.617 12.5215ZM106.3 6.82565V6.21732H103.988V9.10482H106.3V8.50899H104.679V7.93399H106.254V7.34649H104.679V6.82565H106.3ZM120 10.6423H119.992H120ZM111.892 11.9715C111.892 11.2882 111.304 11.1923 110.763 11.1923H109.121L109.117 14.0798H109.808L109.813 13.0257H110.546C111.004 13.0257 111.163 13.109 111.163 13.6007L111.158 14.0798H111.85L111.854 13.5048C111.854 13.134 111.779 12.8757 111.396 12.7382C111.717 12.609 111.888 12.2882 111.892 11.9715ZM110.675 12.4382H109.813V11.7882H110.688C110.9 11.7882 111.133 11.8298 111.133 12.0965C111.133 12.384 110.908 12.4382 110.675 12.4382ZM103.475 9.10482V6.21732H102.325L101.504 8.17565L100.6 6.21732H99.4709V8.95482L98.3 6.21732H97.2792L96.0417 9.10482H96.7875L97.0542 8.46732H98.4917L98.7584 9.10482H100.167V6.84649L101.167 9.10482H101.775L102.775 6.84649V9.10482H103.475ZM97.3 7.86732L97.7667 6.71732L98.2459 7.86732H97.3ZM117.192 14.4882V14.3007C116.742 14.534 117.029 14.4882 110.663 14.4882C110.663 13.4382 110.667 13.4923 110.663 13.4382C110.592 13.434 110.529 13.434 110.271 13.434C110.271 14.1798 110.267 13.7173 110.267 14.4882H108.617C108.617 13.984 108.621 13.8507 108.621 13.2715C108.204 13.5215 107.671 13.5382 107.192 13.5298C107.192 14.1423 107.188 13.8757 107.188 14.4882H105.15C104.938 14.2507 105.038 14.359 104.508 13.7632C104.375 13.909 103.975 14.3423 103.838 14.4882H100.421V10.6423H103.883C104.092 10.8757 104 10.7715 104.529 11.359C104.663 11.2132 105.038 10.8007 105.183 10.6423H107.6C108.008 10.6423 108.35 10.7215 108.613 10.8757V10.6423C110.875 10.6423 111.292 10.584 111.767 10.8548V10.6423H115.025V10.859C115.5 10.5715 115.842 10.6423 117.729 10.6423V10.8507C118.158 10.6048 118.421 10.634 119.992 10.6423V3.33398C119.992 2.22982 119.096 1.33398 117.992 1.33398H97.9917C96.8875 1.33398 95.9917 2.22982 95.9917 3.33398V7.90899C96.3834 6.99649 96.8125 5.99232 96.9542 5.66315H98.6084C98.7875 6.08399 98.675 5.81732 98.9834 6.54232V5.66315H100.9C101.021 5.92149 101.363 6.66315 101.479 6.91315C101.721 6.34649 101.9 5.91732 102.004 5.66315H106.296C106.296 5.65899 106.775 5.66315 106.779 5.66315C108.6 5.67149 109.013 5.62982 109.463 5.88399V5.66315H111.125V6.05065C111.442 5.79649 111.871 5.66315 112.404 5.66315H113.554C113.554 5.68399 113.633 5.67565 113.65 5.67565H115C115.175 6.08399 115.108 5.92565 115.367 6.53399V5.67565H117.171C117.375 6.00899 117.129 5.60065 117.638 6.44232V5.67565H119.3V9.50899H117.567C117.342 9.13399 117.508 9.41732 117.017 8.59649V9.50899H114.817C114.55 8.89232 114.813 9.49649 114.542 8.87149H113.75C113.575 9.28815 113.658 9.08815 113.483 9.50899H112.367C111.854 9.50899 111.438 9.38399 111.129 9.13815V9.50899H108.358C108.346 8.92982 108.354 8.47565 108.354 8.47565C108.279 8.46315 108.213 8.46732 107.946 8.46732V9.51315H102.3V9.03815C102.196 9.27149 102.188 9.28399 102.088 9.51315H100.858C100.692 9.14232 100.738 9.24649 100.646 9.03815V9.51315H98.4417C98.2667 9.09232 98.35 9.29232 98.175 8.87565H97.375C97.2 9.29232 97.2834 9.09232 97.1084 9.51315H96V18.0007C96 19.1048 96.8959 20.0007 98 20.0007H118.004C119.108 20.0007 120.004 19.1048 120.004 18.0007V14.234C119.475 14.5798 118.642 14.4882 117.192 14.4882ZM118.704 11.8007H119.958V11.1923H118.588C118.054 11.1923 117.596 11.4673 117.596 12.0548C117.596 13.4298 119.375 12.5882 119.375 13.1965C119.375 13.409 119.196 13.4632 119.025 13.4632H117.692L117.688 14.0798H119.021C119.371 14.0798 119.754 14.0048 119.958 13.709V12.634C119.521 12.059 118.321 12.5798 118.321 12.0715C118.321 11.8298 118.513 11.8007 118.704 11.8007ZM116.329 13.459H114.988L114.983 14.0757H116.325C116.942 14.0757 117.417 13.8423 117.417 13.159C117.417 11.7757 115.629 12.6923 115.629 12.0632C115.629 11.8298 115.833 11.7965 116.013 11.7965H117.279V11.1882H115.896C115.363 11.1882 114.917 11.4632 114.917 12.0507C114.917 13.4257 116.696 12.5715 116.696 13.1923C116.692 13.4173 116.5 13.459 116.329 13.459ZM114.571 11.7882V11.1923H112.271L112.267 14.0798H114.567L114.571 13.484L112.963 13.4715V12.8965H114.542V12.309H112.967V11.7882H114.571ZM112.225 7.28399C112.213 7.29232 112.167 7.37565 112.167 7.60065C112.167 7.85065 112.204 7.92149 112.213 7.92982C112.221 7.93399 112.258 7.95065 112.354 7.95065L112.658 7.24649C112.613 7.24649 112.571 7.24232 112.529 7.24232C112.296 7.24232 112.238 7.27149 112.225 7.28399ZM113.075 6.84649H113.071H113.075ZM112.4 6.21315C111.421 6.21315 110.983 6.71315 110.983 7.68399C110.983 8.60899 111.408 9.10065 112.358 9.10065H113.158L113.425 8.46315H114.854L115.129 9.10065H116.533V6.93815L117.833 9.10065H118.817V6.22565H118.113V8.22982L116.9 6.22565H115.846V8.95065L114.683 6.22565H113.65L112.671 8.49649H112.363C111.808 8.49649 111.692 8.15899 111.692 7.66732C111.692 6.67565 112.346 6.83399 113.071 6.84649V6.21315H112.4ZM114.154 6.71732L114.621 7.86732H113.671L114.154 6.71732ZM109.942 6.21732V9.10482H110.646V6.21732H109.942Z" fill="#222222"/>
</g>
<defs>
<clipPath id="clip0_71_427">
<rect width="24" height="21.3333" fill="white" transform="translate(96)"/>
</clipPath>
</defs>
</svg>
