<svg width="24" height="24" viewBox="0 0 24 24" fill="none" xmlns="http://www.w3.org/2000/svg">
<path d="M12 0.509766C18.6165 0.509766 24 4.87777 24 10.2478C24 12.3973 23.1675 14.3323 21.4275 16.2388C18.9105 19.1368 13.281 22.6663 12 23.2063C10.755 23.7313 10.899 22.9108 10.956 22.5868L10.9605 22.5598L11.1315 21.5323C11.172 21.2263 11.214 20.7508 11.0925 20.4478C10.9575 20.1133 10.4265 19.9393 10.0365 19.8553C4.269 19.0948 0 15.0613 0 10.2478C0 4.87777 5.385 0.509766 12 0.509766ZM7.533 12.0388H5.2455V7.88677C5.2455 7.82496 5.22105 7.76567 5.17749 7.72183C5.13393 7.67799 5.0748 7.65316 5.013 7.65277H4.17C4.13927 7.65277 4.10884 7.65882 4.08045 7.67058C4.05206 7.68234 4.02627 7.69957 4.00454 7.7213C3.98281 7.74303 3.96557 7.76883 3.95381 7.79722C3.94205 7.82561 3.936 7.85604 3.936 7.88677V13.1158C3.936 13.1773 3.9615 13.2358 4.002 13.2763V13.2778L4.005 13.2808L4.008 13.2838C4.0515 13.3256 4.10965 13.3488 4.17 13.3483H7.533C7.662 13.3483 7.7655 13.2433 7.7655 13.1143V12.2743C7.7657 12.2435 7.75984 12.2131 7.74826 12.1846C7.73669 12.1561 7.71961 12.1302 7.69802 12.1084C7.67643 12.0865 7.65075 12.0691 7.62243 12.0571C7.59412 12.0452 7.56373 12.039 7.533 12.0388ZM8.7195 7.65277C8.65744 7.65277 8.59792 7.67742 8.55404 7.7213C8.51015 7.76519 8.4855 7.82471 8.4855 7.88677V13.1158C8.4855 13.2448 8.5905 13.3483 8.7195 13.3483H9.5625C9.6915 13.3483 9.795 13.2433 9.795 13.1158V7.88677C9.795 7.82496 9.77055 7.76567 9.72699 7.72183C9.68343 7.67799 9.6243 7.65316 9.5625 7.65277H8.7195ZM14.514 7.65277C14.4519 7.65277 14.3924 7.67742 14.3485 7.7213C14.3047 7.76519 14.28 7.82471 14.28 7.88677V10.9918L11.8845 7.75776C11.8784 7.74989 11.8719 7.74238 11.865 7.73527V7.73377C11.8603 7.72851 11.8553 7.72351 11.85 7.71877L11.8455 7.71426C11.8404 7.70935 11.8348 7.70483 11.829 7.70077H11.8275L11.82 7.69477L11.8155 7.69177C11.8132 7.69002 11.8106 7.68851 11.808 7.68727L11.796 7.67977H11.793L11.7885 7.67676L11.7735 7.67077L11.7675 7.66776C11.7626 7.66599 11.7576 7.66448 11.7525 7.66327H11.7495L11.745 7.66177L11.7315 7.65877H11.7225L11.718 7.65727H11.712L11.709 7.65577H10.848C10.7862 7.65576 10.7269 7.68021 10.6831 7.72377C10.6392 7.76733 10.6144 7.82647 10.614 7.88827V13.1173C10.614 13.2463 10.719 13.3498 10.848 13.3498H11.688C11.8185 13.3498 11.9235 13.2448 11.9235 13.1173V10.0123L14.3235 13.2523C14.3395 13.2746 14.3593 13.2939 14.382 13.3093L14.3835 13.3108L14.3985 13.3198L14.4045 13.3228C14.4084 13.325 14.4124 13.327 14.4165 13.3288L14.427 13.3333L14.4345 13.3363C14.4395 13.3379 14.4445 13.3394 14.4495 13.3408H14.454C14.4735 13.3464 14.4937 13.3494 14.514 13.3498H15.354C15.4845 13.3498 15.5895 13.2448 15.5895 13.1173V7.88677C15.5895 7.82471 15.5648 7.76519 15.521 7.7213C15.4771 7.67742 15.4176 7.65277 15.3555 7.65277H14.514ZM20.2365 8.72827V7.88827C20.2367 7.85754 20.2308 7.82707 20.2193 7.7986C20.2077 7.77014 20.1906 7.74423 20.169 7.72236C20.1474 7.70049 20.1217 7.68309 20.0934 7.67115C20.0651 7.65921 20.0347 7.65296 20.004 7.65277H16.641C16.5805 7.65284 16.5223 7.67652 16.479 7.71877H16.4775L16.476 7.72177L16.473 7.72626C16.4311 7.76924 16.4075 7.82675 16.407 7.88677V13.1158C16.407 13.1773 16.4325 13.2358 16.473 13.2763L16.476 13.2808L16.479 13.2838C16.5226 13.3255 16.5807 13.3486 16.641 13.3483H20.004C20.133 13.3483 20.2365 13.2433 20.2365 13.1143V12.2743C20.2367 12.2435 20.2308 12.2131 20.2193 12.1846C20.2077 12.1561 20.1906 12.1302 20.169 12.1084C20.1474 12.0865 20.1217 12.0691 20.0934 12.0571C20.0651 12.0452 20.0347 12.039 20.004 12.0388H17.715V11.1553H20.0025C20.1315 11.1553 20.235 11.0503 20.235 10.9213V10.0813C20.2352 10.0505 20.2293 10.0201 20.2178 9.9916C20.2062 9.96314 20.1891 9.93723 20.1675 9.91536C20.1459 9.89349 20.1202 9.87609 20.0919 9.86415C20.0636 9.85221 20.0332 9.84596 20.0025 9.84577H17.715V8.96227H20.0025C20.1315 8.96227 20.235 8.85727 20.235 8.72827H20.2365Z" fill="#B07926"/>
</svg>
