<svg width="204" height="40" viewBox="0 0 204 40" fill="none" xmlns="http://www.w3.org/2000/svg">
<path d="M6.58813 35.5441L7.8519 33.2463C10.4407 34.6709 12.953 35.3833 15.3887 35.3833C17.0125 35.3833 18.4907 35.0922 19.8234 34.5101C21.1715 33.9127 22.2285 33.1084 22.9944 32.0974C23.7757 31.0711 24.1663 29.9604 24.1663 28.7656C24.1663 27.5861 23.814 26.5367 23.1093 25.6176C22.4047 24.6985 21.1332 23.6339 19.295 22.4237C17.5027 21.2288 16.4074 20.4935 16.0091 20.2178C15.6262 19.9421 15.1207 19.5515 14.4926 19.046C13.3743 18.0655 12.8152 16.909 12.8152 15.5763C12.8152 13.1713 14.3777 10.8581 17.5027 8.63692C18.3759 8.00887 19.3716 7.4421 20.4898 6.93659C21.6234 6.43108 22.734 6.04812 23.8216 5.7877C24.9092 5.52727 25.9279 5.39706 26.8777 5.39706C28.2717 5.39706 29.367 5.65748 30.1635 6.17828C30.9601 6.69913 31.3584 7.42675 31.3584 8.3612C31.3584 9.5101 30.8759 10.7432 29.9108 12.0606C28.9457 13.3628 27.6283 14.5652 25.9586 15.6682L24.1203 14.6342C25.2539 13.8683 26.2113 13.1023 26.9926 12.3364C27.7738 11.5705 28.3789 10.8275 28.8078 10.1075C29.2367 9.37221 29.4512 8.70586 29.4512 8.10845C29.4512 7.69485 29.3363 7.34252 29.1065 7.05146C28.8767 6.7604 28.5474 6.53828 28.1185 6.38511C27.6895 6.23193 27.1534 6.15532 26.51 6.15532C25.3152 6.15532 24.0284 6.39278 22.6497 6.86765C21.2864 7.32722 19.9996 7.93993 18.7895 8.70586C16.0934 10.4062 14.7453 12.2981 14.7453 14.3814C14.7453 14.9635 14.9062 15.515 15.2279 16.0358C15.5495 16.5413 16.1087 17.1158 16.9053 17.7592C17.7171 18.4026 18.8967 19.2298 20.4439 20.2408C21.5927 20.9914 22.4583 21.6042 23.0404 22.079C23.6378 22.5539 24.128 23.0517 24.511 23.5726C25.3688 24.6602 25.7977 25.878 25.7977 27.2261C25.7977 28.2677 25.522 29.3247 24.9705 30.3971C24.4343 31.4693 23.6684 32.4727 22.6727 33.4072C20.3443 35.5977 17.112 36.693 12.976 36.693C10.2799 36.693 8.15063 36.31 6.58813 35.5441ZM41.8823 22.5616L39.7223 30.9715C39.4926 31.8906 39.3777 32.6106 39.3777 33.1314C39.3777 33.591 39.4773 33.9892 39.6764 34.3263C39.8755 34.6633 40.1207 34.8318 40.4117 34.8318C40.8559 34.8318 41.5912 34.288 42.6175 33.2004L42.9392 33.522L42.6865 33.8208C41.8746 34.7552 41.2465 35.4139 40.8023 35.7969C40.3734 36.1645 39.9981 36.3484 39.6764 36.3484C39.1862 36.3484 38.7573 36.0956 38.3896 35.59C38.0373 35.0692 37.8611 34.4718 37.8611 33.7978C37.8611 33.3076 38.0449 32.197 38.4126 30.466L38.5964 29.5928C38.0296 30.9102 37.2714 32.174 36.3216 33.3842C34.7285 35.4062 33.2043 36.4172 31.749 36.4172C30.8758 36.4172 30.1865 36.1032 29.681 35.4752C29.1755 34.8471 28.9227 34.0046 28.9227 32.9476C28.9227 31.5076 29.3286 29.9988 30.1406 28.421C30.9678 26.8431 31.9864 25.5487 33.1966 24.5377C34.4221 23.5113 35.6093 22.9981 36.7582 22.9981C37.9684 22.9981 38.8722 23.4424 39.4696 24.3308L39.7223 23.4577L41.8823 22.5616ZM39.2398 25.5028C39.056 24.9206 38.742 24.4687 38.2977 24.147C37.8688 23.81 37.371 23.6415 36.8041 23.6415C36.1301 23.6415 35.4178 23.9556 34.6672 24.5836C33.9166 25.1964 33.2272 26.0542 32.5992 27.1572C32.109 28.0303 31.6954 28.9954 31.3584 30.0524C31.0367 31.1093 30.8758 31.9825 30.8758 32.6719C30.8758 33.4531 31.0214 34.0659 31.3124 34.5101C31.6188 34.9543 32.0477 35.1764 32.5992 35.1764C33.3039 35.1764 34.0391 34.8471 34.8051 34.1884C35.571 33.5297 36.3293 32.5876 37.0799 31.3621C37.5394 30.6575 37.8994 29.9528 38.1598 29.2482C38.4203 28.5435 38.7113 27.5631 39.033 26.307L39.2398 25.5028ZM52.8427 3.76562L46.7996 30.2592L46.5927 31.1553C46.3936 31.9979 46.294 32.7101 46.294 33.2923C46.294 33.7671 46.3783 34.1578 46.5468 34.4641C46.7306 34.7552 46.9527 34.9007 47.2131 34.9007C47.6879 34.9007 48.4465 34.334 49.4879 33.2004L49.8554 33.522L49.6258 33.7748C48.7528 34.8012 48.1091 35.4981 47.6959 35.8658C47.2822 36.2181 46.8991 36.3943 46.5468 36.3943C46.0872 36.3943 45.6813 36.1415 45.329 35.636C44.9919 35.1152 44.8234 34.5254 44.8234 33.8667C44.8234 33.4072 44.923 32.6795 45.1222 31.6838L50.43 4.93748L52.8427 3.76562ZM51.0277 31.7298C51.0277 30.3511 51.3952 28.9801 52.1302 27.6167C52.8808 26.238 53.846 25.1198 55.0253 24.262C56.2051 23.4041 57.4074 22.9752 58.6328 22.9752C59.9199 22.9752 60.9538 23.4041 61.735 24.262C62.5317 25.1044 62.9298 26.1997 62.9298 27.5478C62.9298 29.0184 62.5623 30.443 61.8267 31.8217C61.1072 33.2004 60.1495 34.334 58.9547 35.2224C57.775 36.0956 56.5801 36.5322 55.3703 36.5322C54.0681 36.5322 53.0187 36.0956 52.2225 35.2224C51.4258 34.334 51.0277 33.1697 51.0277 31.7298ZM60.862 26.6746C60.862 25.7555 60.6319 24.9972 60.1726 24.3998C59.7284 23.8024 59.1538 23.5036 58.4493 23.5036C57.806 23.5036 57.1853 23.7105 56.5881 24.1241C56.006 24.5377 55.4695 25.1428 54.9797 25.9393C54.4281 26.8584 53.9684 27.9308 53.6008 29.1562C53.2488 30.3817 53.0724 31.4693 53.0724 32.4191C53.0724 33.5527 53.2945 34.4259 53.7387 35.0386C54.183 35.6513 54.8187 35.9577 55.646 35.9577C56.9787 35.9577 58.1505 35.0309 59.1613 33.1774C59.6823 32.2276 60.0959 31.163 60.4022 29.9835C60.7086 28.8039 60.862 27.701 60.862 26.6746ZM65.0437 36.3713L67.4794 23.6415L69.6625 22.6994L67.6865 31.1324C68.9575 28.4516 70.2215 26.4142 71.4775 25.0202C72.734 23.6262 73.9364 22.9292 75.0851 22.9292C75.6521 22.9292 76.1114 23.1207 76.4639 23.5036C76.8164 23.8713 76.9924 24.3692 76.9924 24.9972C76.9924 25.3496 76.9081 25.8474 76.7397 26.4908L76.51 27.4559L75.8206 30.2592L75.5905 31.1553C75.3608 32.0744 75.246 32.7791 75.246 33.2693C75.246 33.7595 75.3302 34.1578 75.4987 34.4641C75.6672 34.7552 75.8893 34.9007 76.1651 34.9007C76.6399 34.9007 77.3985 34.334 78.4399 33.2004L78.8074 33.522L78.5778 33.7748C77.7048 34.8012 77.0615 35.4981 76.6479 35.8658C76.2342 36.2181 75.8512 36.3943 75.4987 36.3943C75.0239 36.3943 74.6178 36.1569 74.2808 35.682C73.9594 35.1918 73.7985 34.5867 73.7985 33.8667C73.7985 33.3765 73.8903 32.6489 74.0742 31.6838L74.9702 26.8125C75.0931 26.0466 75.1543 25.5104 75.1543 25.204C75.1543 24.8823 75.07 24.6372 74.9015 24.4687C74.7331 24.3002 74.503 24.216 74.2121 24.216C73.1552 24.216 71.8531 25.3496 70.3058 27.6167C69.5552 28.7044 68.935 29.7843 68.4446 30.8566C67.9543 31.9136 67.4027 33.3842 66.79 35.2684L66.5834 35.8888L65.0437 36.3713ZM104.934 3.76562L98.8446 30.2592C98.5227 31.6685 98.3618 32.6489 98.3618 33.2004C98.3618 33.6906 98.446 34.0888 98.6145 34.3952C98.7985 34.7016 99.0437 34.8548 99.35 34.8548C99.7481 34.8548 100.231 34.5561 100.798 33.9586L101.464 33.2923C101.479 33.277 101.494 33.2616 101.51 33.2463C101.525 33.231 101.548 33.2157 101.579 33.2004L101.924 33.522L101.74 33.7288C101.158 34.3722 100.859 34.7016 100.844 34.7169L100.085 35.4752C99.702 35.8581 99.4187 36.0956 99.2352 36.1875C99.0667 36.2947 98.8752 36.3484 98.6606 36.3484C98.1552 36.3484 97.734 36.0879 97.3966 35.5671C97.0597 35.0462 96.8912 34.4488 96.8912 33.7748C96.8912 33.3765 96.9985 32.6489 97.2131 31.5919L97.4658 30.2821C97.0677 31.2472 96.4394 32.2965 95.5815 33.4301C94.0342 35.4216 92.5331 36.4172 91.078 36.4172C90.2046 36.4172 89.5152 36.1032 89.0098 35.4752C88.5044 34.8318 88.2517 33.9663 88.2517 32.8787C88.2517 31.3621 88.6498 29.8302 89.4465 28.2831C90.2432 26.7206 91.254 25.4338 92.4794 24.4228C93.7204 23.4117 94.9533 22.9062 96.1787 22.9062C97.0827 22.9062 97.9251 23.1743 98.7067 23.7105L102.452 4.93748L104.934 3.76562ZM98.4997 24.8594C98.3618 24.4458 98.0785 24.1164 97.6498 23.8713C97.2206 23.6109 96.7608 23.4807 96.271 23.4807C95.551 23.4807 94.8079 23.8024 94.0418 24.4458C93.2912 25.0892 92.5792 26.0006 91.9048 27.1801C91.415 28.0533 91.0088 29.0107 90.6874 30.0524C90.3811 31.0787 90.2277 32.0132 90.2277 32.8557C90.2277 33.591 90.3811 34.1807 90.6874 34.625C91.0088 35.0692 91.4455 35.2914 91.9971 35.2914C92.6404 35.2914 93.3298 34.962 94.0648 34.3033C94.8154 33.6446 95.566 32.6948 96.3166 31.454C96.8225 30.6115 97.2206 29.7383 97.5119 28.8346C97.8639 27.6703 98.1166 26.7359 98.27 26.0312L98.4997 24.8594ZM112.631 32.5799L113.045 32.9246C112.095 34.1807 111.168 35.0922 110.264 35.659C109.361 36.2105 108.388 36.4862 107.346 36.4862C106.105 36.4862 105.11 36.0726 104.359 35.2454C103.608 34.4182 103.233 33.3229 103.233 31.9596C103.233 30.5809 103.593 29.1869 104.313 27.7776C105.048 26.3529 105.96 25.1811 107.047 24.262C108.15 23.3275 109.238 22.8603 110.31 22.8603C110.938 22.8603 111.452 23.0441 111.85 23.4117C112.263 23.7794 112.47 24.2543 112.47 24.8364C112.47 26.0159 111.827 27.1955 110.54 28.375C109.254 29.5545 107.499 30.5579 105.278 31.3851C105.263 31.5076 105.255 31.6455 105.255 31.7987C105.255 32.8557 105.546 33.7212 106.128 34.3952C106.71 35.0539 107.461 35.3833 108.38 35.3833C109.1 35.3833 109.797 35.1612 110.471 34.7169C111.145 34.2573 111.865 33.545 112.631 32.5799ZM105.278 30.8336C106.933 30.0983 108.204 29.2788 109.093 28.375C109.69 27.7622 110.173 27.1036 110.54 26.3989C110.908 25.6942 111.092 25.0585 111.092 24.4917C111.092 23.7717 110.762 23.4117 110.103 23.4117C109.108 23.4117 108.097 24.2007 107.07 25.7785C106.06 27.341 105.462 29.026 105.278 30.8336ZM128.877 4.93748L131.312 3.76562L124.694 32.0974C127.452 25.9393 130.156 22.8603 132.806 22.8603C133.342 22.8603 133.817 23.0058 134.23 23.2969C134.659 23.5726 134.989 23.9862 135.218 24.5377C135.463 25.0892 135.586 25.6713 135.586 26.284C135.586 27.4482 135.31 28.7426 134.759 30.1673C134.207 31.5766 133.51 32.7868 132.668 33.7978C131.166 35.6207 129.512 36.5322 127.705 36.5322C127.138 36.5322 126.594 36.4326 126.073 36.2334C125.552 36.0496 124.97 35.7356 124.327 35.2914L122.718 36.2564L128.877 4.93748ZM124.694 33.7978C125.384 35.2377 126.372 35.9577 127.659 35.9577C128.578 35.9577 129.428 35.5594 130.209 34.7628C131.006 33.9663 131.71 32.8097 132.323 31.2932C132.676 30.4353 132.966 29.5085 133.197 28.5129C133.426 27.5018 133.541 26.6976 133.541 26.1002C133.541 24.6602 133.036 23.9403 132.024 23.9403C131.35 23.9403 130.584 24.3539 129.727 25.1811C128.869 26.0083 128.003 27.1648 127.13 28.6507C126.272 30.1213 125.461 31.837 124.694 33.7978ZM146.868 32.5799L147.282 32.9246C146.332 34.1807 145.406 35.0922 144.502 35.659C143.598 36.2105 142.625 36.4862 141.583 36.4862C140.342 36.4862 139.347 36.0726 138.596 35.2454C137.846 34.4182 137.47 33.3229 137.47 31.9596C137.47 30.5809 137.83 29.1869 138.55 27.7776C139.286 26.3529 140.197 25.1811 141.285 24.262C142.388 23.3275 143.475 22.8603 144.548 22.8603C145.175 22.8603 145.689 23.0441 146.087 23.4117C146.501 23.7794 146.708 24.2543 146.708 24.8364C146.708 26.0159 146.064 27.1955 144.777 28.375C143.491 29.5545 141.736 30.5579 139.515 31.3851C139.5 31.5076 139.493 31.6455 139.493 31.7987C139.493 32.8557 139.783 33.7212 140.366 34.3952C140.948 35.0539 141.698 35.3833 142.617 35.3833C143.337 35.3833 144.034 35.1612 144.709 34.7169C145.382 34.2573 146.102 33.545 146.868 32.5799ZM139.515 30.8336C141.17 30.0983 142.441 29.2788 143.33 28.375C143.927 27.7622 144.41 27.1036 144.777 26.3989C145.145 25.6942 145.329 25.0585 145.329 24.4917C145.329 23.7717 144.999 23.4117 144.341 23.4117C143.345 23.4117 142.334 24.2007 141.308 25.7785C140.296 27.341 139.699 29.026 139.515 30.8336ZM161.827 22.5616L159.667 30.9715C159.437 31.8906 159.322 32.6106 159.322 33.1314C159.322 33.591 159.422 33.9892 159.621 34.3263C159.82 34.6633 160.065 34.8318 160.356 34.8318C160.8 34.8318 161.536 34.288 162.562 33.2004L162.884 33.522L162.631 33.8208C161.819 34.7552 161.191 35.4139 160.747 35.7969C160.318 36.1645 159.943 36.3484 159.621 36.3484C159.131 36.3484 158.702 36.0956 158.334 35.59C157.982 35.0692 157.806 34.4718 157.806 33.7978C157.806 33.3076 157.99 32.197 158.357 30.466L158.541 29.5928C157.974 30.9102 157.216 32.174 156.266 33.3842C154.673 35.4062 153.149 36.4172 151.694 36.4172C150.821 36.4172 150.131 36.1032 149.626 35.4752C149.12 34.8471 148.867 34.0046 148.867 32.9476C148.867 31.5076 149.273 29.9988 150.085 28.421C150.912 26.8431 151.931 25.5487 153.141 24.5377C154.367 23.5113 155.554 22.9981 156.703 22.9981C157.913 22.9981 158.817 23.4424 159.414 24.3308L159.667 23.4577L161.827 22.5616ZM159.184 25.5028C159.001 24.9206 158.686 24.4687 158.242 24.147C157.814 23.81 157.316 23.6415 156.749 23.6415C156.075 23.6415 155.362 23.9556 154.612 24.5836C153.861 25.1964 153.172 26.0542 152.544 27.1572C152.054 28.0303 151.64 28.9954 151.303 30.0524C150.982 31.1093 150.821 31.9825 150.821 32.6719C150.821 33.4531 150.966 34.0659 151.257 34.5101C151.564 34.9543 151.992 35.1764 152.544 35.1764C153.248 35.1764 153.984 34.8471 154.75 34.1884C155.516 33.5297 156.274 32.5876 157.024 31.3621C157.484 30.6575 157.844 29.9528 158.104 29.2482C158.365 28.5435 158.656 27.5631 158.978 26.307L159.184 25.5028ZM168.835 22.6994L166.606 31.5919C166.407 32.3884 166.308 33.0625 166.308 33.614C166.308 34.1501 166.476 34.579 166.813 34.9007C167.15 35.2224 167.587 35.3833 168.123 35.3833C169.425 35.3833 170.781 34.3186 172.19 32.1893L172.282 32.0515C172.312 31.8983 172.335 31.7757 172.351 31.6838L173.798 23.6415L176.05 22.6994L174.028 30.2592C173.691 31.5 173.523 32.4957 173.523 33.2463C173.523 33.7365 173.607 34.1348 173.775 34.4412C173.944 34.7476 174.166 34.9007 174.442 34.9007C174.917 34.9007 175.675 34.334 176.717 33.2004L177.084 33.522L176.854 33.7748C175.982 34.8012 175.338 35.4981 174.924 35.8658C174.511 36.2181 174.128 36.3943 173.775 36.3943C173.301 36.3943 172.894 36.1569 172.558 35.682C172.236 35.1918 172.075 34.5867 172.075 33.8667C172.075 33.6369 172.083 33.4225 172.098 33.2233C170.505 35.3373 168.927 36.3943 167.365 36.3943C166.583 36.3943 165.955 36.1722 165.48 35.7279C165.021 35.2684 164.791 34.6633 164.791 33.9127C164.791 33.3306 164.875 32.6182 165.044 31.7757L166.606 23.6415L168.835 22.6994ZM182.76 23.8713L181.014 31.5229C180.83 32.3655 180.738 32.9629 180.738 33.3152C180.738 33.8667 180.868 34.3109 181.128 34.648C181.389 34.985 181.734 35.1535 182.162 35.1535C182.576 35.1535 182.951 35.0386 183.288 34.8088C183.641 34.5637 184.169 34.0659 184.874 33.3152L185.15 33.0395L185.494 33.3842C184.59 34.4871 183.832 35.2684 183.219 35.7279C182.622 36.1722 182.032 36.3943 181.45 36.3943C180.715 36.3943 180.125 36.1569 179.681 35.682C179.252 35.1918 179.038 34.5561 179.038 33.7748C179.038 33.1927 179.152 32.3502 179.382 31.2472L180.876 23.8713H178.67L178.83 23.09H181.037L182.323 16.886L184.529 16.0129L182.921 23.09H186.643L186.482 23.8713H182.76ZM196.225 32.5799L196.638 32.9246C195.689 34.1807 194.762 35.0922 193.858 35.659C192.954 36.2105 191.982 36.4862 190.94 36.4862C189.699 36.4862 188.703 36.0726 187.953 35.2454C187.202 34.4182 186.827 33.3229 186.827 31.9596C186.827 30.5809 187.187 29.1869 187.907 27.7776C188.642 26.3529 189.554 25.1811 190.641 24.262C191.744 23.3275 192.832 22.8603 193.904 22.8603C194.532 22.8603 195.046 23.0441 195.444 23.4117C195.857 23.7794 196.064 24.2543 196.064 24.8364C196.064 26.0159 195.421 27.1955 194.134 28.375C192.847 29.5545 191.093 30.5579 188.872 31.3851C188.857 31.5076 188.849 31.6455 188.849 31.7987C188.849 32.8557 189.14 33.7212 189.722 34.3952C190.304 35.0539 191.055 35.3833 191.974 35.3833C192.694 35.3833 193.391 35.1612 194.065 34.7169C194.739 34.2573 195.459 33.545 196.225 32.5799ZM188.872 30.8336C190.526 30.0983 191.798 29.2788 192.686 28.375C193.284 27.7622 193.766 27.1036 194.134 26.3989C194.502 25.6942 194.686 25.0585 194.686 24.4917C194.686 23.7717 194.356 23.4117 193.697 23.4117C192.702 23.4117 191.691 24.2007 190.664 25.7785C189.653 27.341 189.056 29.026 188.872 30.8336Z" fill="#EEE8E4"/>
</svg>
