<svg width="191" height="34" viewBox="0 0 191 34" fill="none" xmlns="http://www.w3.org/2000/svg">
<path d="M0.588135 32.5441L1.8519 30.2463C4.44075 31.6709 6.95303 32.3833 9.3887 32.3833C11.0125 32.3833 12.4907 32.0922 13.8234 31.5101C15.1715 30.9127 16.2285 30.1084 16.9944 29.0974C17.7757 28.0711 18.1663 26.9604 18.1663 25.7656C18.1663 24.5861 17.814 23.5367 17.1093 22.6176C16.4047 21.6985 15.1332 20.6339 13.295 19.4237C11.5027 18.2288 10.4074 17.4935 10.0091 17.2178C9.62616 16.9421 9.12065 16.5515 8.49256 16.046C7.3743 15.0655 6.81519 13.909 6.81519 12.5763C6.81519 10.1713 8.37769 7.85814 11.5027 5.63692C12.3759 5.00887 13.3716 4.4421 14.4898 3.93659C15.6234 3.43108 16.734 3.04812 17.8216 2.7877C18.9092 2.52727 19.9279 2.39706 20.8777 2.39706C22.2717 2.39706 23.367 2.65748 24.1635 3.17828C24.9601 3.69913 25.3584 4.42675 25.3584 5.3612C25.3584 6.5101 24.8759 7.74322 23.9108 9.06064C22.9457 10.3628 21.6283 11.5652 19.9586 12.6682L18.1203 11.6342C19.2539 10.8683 20.2113 10.1023 20.9926 9.3364C21.7738 8.57047 22.3789 7.82751 22.8078 7.10751C23.2367 6.37221 23.4512 5.70586 23.4512 5.10845C23.4512 4.69485 23.3363 4.34252 23.1065 4.05146C22.8767 3.7604 22.5474 3.53828 22.1185 3.38511C21.6895 3.23193 21.1534 3.15532 20.51 3.15532C19.3152 3.15532 18.0284 3.39278 16.6497 3.86765C15.2864 4.32722 13.9996 4.93993 12.7895 5.70586C10.0934 7.40624 8.74531 9.29809 8.74531 11.3814C8.74531 11.9635 8.90616 12.515 9.22785 13.0358C9.54955 13.5413 10.1087 14.1158 10.9053 14.7592C11.7171 15.4026 12.8967 16.2298 14.4439 17.2408C15.5927 17.9914 16.4583 18.6042 17.0404 19.079C17.6378 19.5539 18.128 20.0517 18.511 20.5726C19.3688 21.6602 19.7977 22.878 19.7977 24.2261C19.7977 25.2677 19.522 26.3247 18.9705 27.3971C18.4343 28.4693 17.6684 29.4727 16.6727 30.4072C14.3443 32.5977 11.112 33.693 6.97604 33.693C4.2799 33.693 2.15063 33.31 0.588135 32.5441ZM35.8823 19.5616L33.7223 27.9715C33.4926 28.8906 33.3777 29.6106 33.3777 30.1314C33.3777 30.591 33.4773 30.9892 33.6764 31.3263C33.8755 31.6633 34.1207 31.8318 34.4117 31.8318C34.8559 31.8318 35.5912 31.288 36.6175 30.2004L36.9392 30.522L36.6865 30.8208C35.8746 31.7552 35.2465 32.4139 34.8023 32.7969C34.3734 33.1645 33.9981 33.3484 33.6764 33.3484C33.1862 33.3484 32.7573 33.0956 32.3896 32.59C32.0373 32.0692 31.8611 31.4718 31.8611 30.7978C31.8611 30.3076 32.0449 29.197 32.4126 27.466L32.5964 26.5928C32.0296 27.9102 31.2714 29.174 30.3216 30.3842C28.7285 32.4062 27.2043 33.4172 25.749 33.4172C24.8758 33.4172 24.1865 33.1032 23.681 32.4752C23.1755 31.8471 22.9227 31.0046 22.9227 29.9476C22.9227 28.5076 23.3286 26.9988 24.1406 25.421C24.9678 23.8431 25.9864 22.5487 27.1966 21.5377C28.4221 20.5113 29.6093 19.9981 30.7582 19.9981C31.9684 19.9981 32.8722 20.4424 33.4696 21.3308L33.7223 20.4577L35.8823 19.5616ZM33.2398 22.5028C33.056 21.9206 32.742 21.4687 32.2977 21.147C31.8688 20.81 31.371 20.6415 30.8041 20.6415C30.1301 20.6415 29.4178 20.9556 28.6672 21.5836C27.9166 22.1964 27.2272 23.0542 26.5992 24.1572C26.109 25.0303 25.6954 25.9954 25.3584 27.0524C25.0367 28.1093 24.8758 28.9825 24.8758 29.6719C24.8758 30.4531 25.0214 31.0659 25.3124 31.5101C25.6188 31.9543 26.0477 32.1764 26.5992 32.1764C27.3039 32.1764 28.0391 31.8471 28.8051 31.1884C29.571 30.5297 30.3293 29.5876 31.0799 28.3621C31.5394 27.6575 31.8994 26.9528 32.1598 26.2482C32.4203 25.5435 32.7113 24.5631 33.033 23.307L33.2398 22.5028ZM46.8427 0.765625L40.7996 27.2592L40.5927 28.1553C40.3936 28.9979 40.294 29.7101 40.294 30.2923C40.294 30.7671 40.3783 31.1578 40.5468 31.4641C40.7306 31.7552 40.9527 31.9007 41.2131 31.9007C41.6879 31.9007 42.4465 31.334 43.4879 30.2004L43.8554 30.522L43.6258 30.7748C42.7528 31.8012 42.1091 32.4981 41.6959 32.8658C41.2822 33.2181 40.8991 33.3943 40.5468 33.3943C40.0872 33.3943 39.6813 33.1415 39.329 32.636C38.9919 32.1152 38.8234 31.5254 38.8234 30.8667C38.8234 30.4072 38.923 29.6795 39.1222 28.6838L44.43 1.93748L46.8427 0.765625ZM45.0277 28.7298C45.0277 27.3511 45.3952 25.9801 46.1302 24.6167C46.8808 23.238 47.846 22.1198 49.0253 21.262C50.2051 20.4041 51.4074 19.9752 52.6328 19.9752C53.9199 19.9752 54.9538 20.4041 55.735 21.262C56.5317 22.1044 56.9298 23.1997 56.9298 24.5478C56.9298 26.0184 56.5623 27.443 55.8267 28.8217C55.1072 30.2004 54.1495 31.334 52.9547 32.2224C51.775 33.0956 50.5801 33.5322 49.3703 33.5322C48.0681 33.5322 47.0187 33.0956 46.2225 32.2224C45.4258 31.334 45.0277 30.1697 45.0277 28.7298ZM54.862 23.6746C54.862 22.7555 54.6319 21.9972 54.1726 21.3998C53.7284 20.8024 53.1538 20.5036 52.4493 20.5036C51.806 20.5036 51.1853 20.7105 50.5881 21.1241C50.006 21.5377 49.4695 22.1428 48.9797 22.9393C48.4281 23.8584 47.9684 24.9308 47.6008 26.1562C47.2488 27.3817 47.0724 28.4693 47.0724 29.4191C47.0724 30.5527 47.2945 31.4259 47.7387 32.0386C48.183 32.6513 48.8187 32.9577 49.646 32.9577C50.9787 32.9577 52.1505 32.0309 53.1613 30.1774C53.6823 29.2276 54.0959 28.163 54.4022 26.9835C54.7086 25.8039 54.862 24.701 54.862 23.6746ZM59.0437 33.3713L61.4794 20.6415L63.6625 19.6994L61.6865 28.1324C62.9575 25.4516 64.2215 23.4142 65.4775 22.0202C66.734 20.6262 67.9364 19.9292 69.0851 19.9292C69.6521 19.9292 70.1114 20.1207 70.4639 20.5036C70.8164 20.8713 70.9924 21.3692 70.9924 21.9972C70.9924 22.3496 70.9081 22.8474 70.7397 23.4908L70.51 24.4559L69.8206 27.2592L69.5905 28.1553C69.3608 29.0744 69.246 29.7791 69.246 30.2693C69.246 30.7595 69.3302 31.1578 69.4987 31.4641C69.6672 31.7552 69.8893 31.9007 70.1651 31.9007C70.6399 31.9007 71.3985 31.334 72.4399 30.2004L72.8074 30.522L72.5778 30.7748C71.7048 31.8012 71.0615 32.4981 70.6479 32.8658C70.2342 33.2181 69.8512 33.3943 69.4987 33.3943C69.0239 33.3943 68.6178 33.1569 68.2808 32.682C67.9594 32.1918 67.7985 31.5867 67.7985 30.8667C67.7985 30.3765 67.8903 29.6489 68.0742 28.6838L68.9702 23.8125C69.0931 23.0466 69.1543 22.5104 69.1543 22.204C69.1543 21.8823 69.07 21.6372 68.9015 21.4687C68.7331 21.3002 68.503 21.216 68.2121 21.216C67.1552 21.216 65.8531 22.3496 64.3058 24.6167C63.5552 25.7044 62.935 26.7843 62.4446 27.8566C61.9543 28.9136 61.4027 30.3842 60.79 32.2684L60.5834 32.8888L59.0437 33.3713ZM98.9335 0.765625L92.8446 27.2592C92.5227 28.6685 92.3618 29.6489 92.3618 30.2004C92.3618 30.6906 92.446 31.0888 92.6145 31.3952C92.7985 31.7016 93.0437 31.8548 93.35 31.8548C93.7481 31.8548 94.231 31.5561 94.7975 30.9586L95.4639 30.2923C95.4794 30.277 95.4945 30.2616 95.51 30.2463C95.5251 30.231 95.5481 30.2157 95.5787 30.2004L95.9237 30.522L95.7397 30.7288C95.1575 31.3722 94.8587 31.7016 94.8437 31.7169L94.0851 32.4752C93.702 32.8581 93.4187 33.0956 93.2352 33.1875C93.0667 33.2947 92.8752 33.3484 92.6606 33.3484C92.1552 33.3484 91.734 33.0879 91.3966 32.5671C91.0597 32.0462 90.8912 31.4488 90.8912 30.7748C90.8912 30.3765 90.9985 29.6489 91.2131 28.5919L91.4658 27.2821C91.0677 28.2472 90.4394 29.2965 89.5815 30.4301C88.0342 32.4216 86.5331 33.4172 85.078 33.4172C84.2046 33.4172 83.5152 33.1032 83.0098 32.4752C82.5044 31.8318 82.2517 30.9663 82.2517 29.8787C82.2517 28.3621 82.6498 26.8302 83.4465 25.2831C84.2432 23.7206 85.254 22.4338 86.4794 21.4228C87.7204 20.4117 88.9533 19.9062 90.1787 19.9062C91.0827 19.9062 91.9251 20.1743 92.7067 20.7105L96.4521 1.93748L98.9335 0.765625ZM92.4997 21.8594C92.3618 21.4458 92.0785 21.1164 91.6498 20.8713C91.2206 20.6109 90.7608 20.4807 90.271 20.4807C89.551 20.4807 88.8079 20.8024 88.0418 21.4458C87.2912 22.0892 86.5792 23.0006 85.9048 24.1801C85.415 25.0533 85.0088 26.0107 84.6874 27.0524C84.3811 28.0787 84.2277 29.0132 84.2277 29.8557C84.2277 30.591 84.3811 31.1807 84.6874 31.625C85.0088 32.0692 85.4455 32.2914 85.9971 32.2914C86.6404 32.2914 87.3298 31.962 88.0648 31.3033C88.8154 30.6446 89.566 29.6948 90.3166 28.454C90.8225 27.6115 91.2206 26.7383 91.5119 25.8346C91.8639 24.6703 92.1166 23.7359 92.27 23.0312L92.4997 21.8594ZM106.631 29.5799L107.045 29.9246C106.095 31.1807 105.168 32.0922 104.264 32.659C103.361 33.2105 102.388 33.4862 101.346 33.4862C100.105 33.4862 99.1095 33.0726 98.359 32.2454C97.6084 31.4182 97.2333 30.3229 97.2333 28.9596C97.2333 27.5809 97.5933 26.1869 98.3133 24.7776C99.0484 23.3529 99.9599 22.1811 101.047 21.262C102.15 20.3275 103.238 19.8603 104.31 19.8603C104.938 19.8603 105.452 20.0441 105.85 20.4117C106.263 20.7794 106.47 21.2543 106.47 21.8364C106.47 23.0159 105.827 24.1955 104.54 25.375C103.254 26.5545 101.499 27.5579 99.278 28.3851C99.263 28.5076 99.2554 28.6455 99.2554 28.7987C99.2554 29.8557 99.5462 30.7212 100.128 31.3952C100.71 32.0539 101.461 32.3833 102.38 32.3833C103.1 32.3833 103.797 32.1612 104.471 31.7169C105.145 31.2573 105.865 30.545 106.631 29.5799ZM99.278 27.8336C100.933 27.0983 102.204 26.2788 103.093 25.375C103.69 24.7622 104.173 24.1036 104.54 23.3989C104.908 22.6942 105.092 22.0585 105.092 21.4917C105.092 20.7717 104.762 20.4117 104.103 20.4117C103.108 20.4117 102.097 21.2007 101.07 22.7785C100.06 24.341 99.462 26.026 99.278 27.8336ZM122.877 1.93748L125.312 0.765625L118.694 29.0974C121.452 22.9393 124.156 19.8603 126.806 19.8603C127.342 19.8603 127.817 20.0058 128.23 20.2969C128.659 20.5726 128.989 20.9862 129.218 21.5377C129.463 22.0892 129.586 22.6713 129.586 23.284C129.586 24.4482 129.31 25.7426 128.759 27.1673C128.207 28.5766 127.51 29.7868 126.668 30.7978C125.166 32.6207 123.512 33.5322 121.705 33.5322C121.138 33.5322 120.594 33.4326 120.073 33.2334C119.552 33.0496 118.97 32.7356 118.327 32.2914L116.718 33.2564L122.877 1.93748ZM118.694 30.7978C119.384 32.2377 120.372 32.9577 121.659 32.9577C122.578 32.9577 123.428 32.5594 124.209 31.7628C125.006 30.9663 125.71 29.8097 126.323 28.2932C126.676 27.4353 126.966 26.5085 127.197 25.5129C127.426 24.5018 127.541 23.6976 127.541 23.1002C127.541 21.6602 127.036 20.9403 126.024 20.9403C125.35 20.9403 124.584 21.3539 123.727 22.1811C122.869 23.0083 122.003 24.1648 121.13 25.6507C120.272 27.1213 119.461 28.837 118.694 30.7978ZM140.868 29.5799L141.282 29.9246C140.332 31.1807 139.406 32.0922 138.502 32.659C137.598 33.2105 136.625 33.4862 135.583 33.4862C134.342 33.4862 133.347 33.0726 132.596 32.2454C131.846 31.4182 131.47 30.3229 131.47 28.9596C131.47 27.5809 131.83 26.1869 132.55 24.7776C133.286 23.3529 134.197 22.1811 135.285 21.262C136.388 20.3275 137.475 19.8603 138.548 19.8603C139.175 19.8603 139.689 20.0441 140.087 20.4117C140.501 20.7794 140.708 21.2543 140.708 21.8364C140.708 23.0159 140.064 24.1955 138.777 25.375C137.491 26.5545 135.736 27.5579 133.515 28.3851C133.5 28.5076 133.493 28.6455 133.493 28.7987C133.493 29.8557 133.783 30.7212 134.366 31.3952C134.948 32.0539 135.698 32.3833 136.617 32.3833C137.337 32.3833 138.034 32.1612 138.709 31.7169C139.382 31.2573 140.102 30.545 140.868 29.5799ZM133.515 27.8336C135.17 27.0983 136.441 26.2788 137.33 25.375C137.927 24.7622 138.41 24.1036 138.777 23.3989C139.145 22.6942 139.329 22.0585 139.329 21.4917C139.329 20.7717 138.999 20.4117 138.341 20.4117C137.345 20.4117 136.334 21.2007 135.308 22.7785C134.296 24.341 133.699 26.026 133.515 27.8336ZM155.827 19.5616L153.667 27.9715C153.437 28.8906 153.322 29.6106 153.322 30.1314C153.322 30.591 153.422 30.9892 153.621 31.3263C153.82 31.6633 154.065 31.8318 154.356 31.8318C154.8 31.8318 155.536 31.288 156.562 30.2004L156.884 30.522L156.631 30.8208C155.819 31.7552 155.191 32.4139 154.747 32.7969C154.318 33.1645 153.943 33.3484 153.621 33.3484C153.131 33.3484 152.702 33.0956 152.334 32.59C151.982 32.0692 151.806 31.4718 151.806 30.7978C151.806 30.3076 151.99 29.197 152.357 27.466L152.541 26.5928C151.974 27.9102 151.216 29.174 150.266 30.3842C148.673 32.4062 147.149 33.4172 145.694 33.4172C144.821 33.4172 144.131 33.1032 143.626 32.4752C143.12 31.8471 142.867 31.0046 142.867 29.9476C142.867 28.5076 143.273 26.9988 144.085 25.421C144.912 23.8431 145.931 22.5487 147.141 21.5377C148.367 20.5113 149.554 19.9981 150.703 19.9981C151.913 19.9981 152.817 20.4424 153.414 21.3308L153.667 20.4577L155.827 19.5616ZM153.184 22.5028C153.001 21.9206 152.686 21.4687 152.242 21.147C151.814 20.81 151.316 20.6415 150.749 20.6415C150.075 20.6415 149.362 20.9556 148.612 21.5836C147.861 22.1964 147.172 23.0542 146.544 24.1572C146.054 25.0303 145.64 25.9954 145.303 27.0524C144.982 28.1093 144.821 28.9825 144.821 29.6719C144.821 30.4531 144.966 31.0659 145.257 31.5101C145.564 31.9543 145.992 32.1764 146.544 32.1764C147.248 32.1764 147.984 31.8471 148.75 31.1884C149.516 30.5297 150.274 29.5876 151.024 28.3621C151.484 27.6575 151.844 26.9528 152.104 26.2482C152.365 25.5435 152.656 24.5631 152.978 23.307L153.184 22.5028ZM162.835 19.6994L160.606 28.5919C160.407 29.3884 160.308 30.0625 160.308 30.614C160.308 31.1501 160.476 31.579 160.813 31.9007C161.15 32.2224 161.587 32.3833 162.123 32.3833C163.425 32.3833 164.781 31.3186 166.19 29.1893L166.282 29.0515C166.312 28.8983 166.335 28.7757 166.351 28.6838L167.798 20.6415L170.05 19.6994L168.028 27.2592C167.691 28.5 167.523 29.4957 167.523 30.2463C167.523 30.7365 167.607 31.1348 167.775 31.4412C167.944 31.7476 168.166 31.9007 168.442 31.9007C168.917 31.9007 169.675 31.334 170.717 30.2004L171.084 30.522L170.854 30.7748C169.982 31.8012 169.338 32.4981 168.924 32.8658C168.511 33.2181 168.128 33.3943 167.775 33.3943C167.301 33.3943 166.894 33.1569 166.558 32.682C166.236 32.1918 166.075 31.5867 166.075 30.8667C166.075 30.6369 166.083 30.4225 166.098 30.2233C164.505 32.3373 162.927 33.3943 161.365 33.3943C160.583 33.3943 159.955 33.1722 159.48 32.7279C159.021 32.2684 158.791 31.6633 158.791 30.9127C158.791 30.3306 158.875 29.6182 159.044 28.7757L160.606 20.6415L162.835 19.6994ZM176.76 20.8713L175.014 28.5229C174.83 29.3655 174.738 29.9629 174.738 30.3152C174.738 30.8667 174.868 31.3109 175.128 31.648C175.389 31.985 175.734 32.1535 176.162 32.1535C176.576 32.1535 176.951 32.0386 177.288 31.8088C177.641 31.5637 178.169 31.0659 178.874 30.3152L179.15 30.0395L179.494 30.3842C178.59 31.4871 177.832 32.2684 177.219 32.7279C176.622 33.1722 176.032 33.3943 175.45 33.3943C174.715 33.3943 174.125 33.1569 173.681 32.682C173.252 32.1918 173.038 31.5561 173.038 30.7748C173.038 30.1927 173.152 29.3502 173.382 28.2472L174.876 20.8713H172.67L172.83 20.09H175.037L176.323 13.886L178.529 13.0129L176.921 20.09H180.643L180.482 20.8713H176.76ZM190.225 29.5799L190.638 29.9246C189.689 31.1807 188.762 32.0922 187.858 32.659C186.954 33.2105 185.982 33.4862 184.94 33.4862C183.699 33.4862 182.703 33.0726 181.953 32.2454C181.202 31.4182 180.827 30.3229 180.827 28.9596C180.827 27.5809 181.187 26.1869 181.907 24.7776C182.642 23.3529 183.554 22.1811 184.641 21.262C185.744 20.3275 186.832 19.8603 187.904 19.8603C188.532 19.8603 189.046 20.0441 189.444 20.4117C189.857 20.7794 190.064 21.2543 190.064 21.8364C190.064 23.0159 189.421 24.1955 188.134 25.375C186.847 26.5545 185.093 27.5579 182.872 28.3851C182.857 28.5076 182.849 28.6455 182.849 28.7987C182.849 29.8557 183.14 30.7212 183.722 31.3952C184.304 32.0539 185.055 32.3833 185.974 32.3833C186.694 32.3833 187.391 32.1612 188.065 31.7169C188.739 31.2573 189.459 30.545 190.225 29.5799ZM182.872 27.8336C184.526 27.0983 185.798 26.2788 186.686 25.375C187.284 24.7622 187.766 24.1036 188.134 23.3989C188.502 22.6942 188.686 22.0585 188.686 21.4917C188.686 20.7717 188.356 20.4117 187.697 20.4117C186.702 20.4117 185.691 21.2007 184.664 22.7785C183.653 24.341 183.056 26.026 182.872 27.8336Z" fill="#222222"/>
</svg>
