<svg width="20" height="20" viewBox="0 0 20 20" fill="none" xmlns="http://www.w3.org/2000/svg">
<path d="M17.2559 12.253C17.1599 11.586 16.6449 11.066 15.9819 10.911C13.4049 10.307 12.7589 8.823 12.6499 7.177C12.1929 7.092 11.3799 7 9.99991 7C8.61991 7 7.80691 7.092 7.34991 7.177C7.24091 8.823 6.59491 10.307 4.01791 10.911C3.35491 11.067 2.83991 11.586 2.74391 12.253L2.24691 15.695C2.07191 16.907 2.96191 18 4.19991 18H15.7999C17.0369 18 17.9279 16.907 17.7529 15.695L17.2559 12.253ZM9.99991 15.492C8.60491 15.492 7.47391 14.372 7.47391 12.992C7.47391 11.612 8.60491 10.492 9.99991 10.492C11.3949 10.492 12.5259 11.612 12.5259 12.992C12.5259 14.372 11.3939 15.492 9.99991 15.492ZM19.9499 6C19.9259 4.5 16.1079 2.001 9.99991 2C3.89091 2.001 0.0729066 4.5 0.0499066 6C0.0269066 7.5 0.0709066 9.452 2.58491 9.127C5.52591 8.746 5.34491 7.719 5.34491 6.251C5.34491 5.227 7.73691 4.98 9.99991 4.98C12.2629 4.98 14.6539 5.227 14.6549 6.251C14.6549 7.719 14.4739 8.746 17.4149 9.127C19.9279 9.452 19.9729 7.5 19.9499 6Z" fill="#EEE8E4"/>
</svg>
